# xmcd
#
# Track frame offsets: 
#        150
#        11577
#        24585
#        35962
#        49763
#        64607
#        79518
#        95527
#        110242
#        122619
#        132909
#        143901
#
# Disc length: 2082 seconds
#
# Revision: 0
# Processed by: cddbd v1.5.2PL0 Copyright (c) Steve Scherf et al.
# Submitted via: ExactAudioCopy v0.95b4
#
DISCID=a408200c
DTITLE=George Jones - George Jones Hits - Disc 2
DYEAR=2011
DGENRE=Country
TTITLE0=A Picture Of Me (Without You)
TTITLE1=Tennessee Whiskey
TTITLE2=The One I Loved Back Then
TTITLE3=Good Year For The Roses
TTITLE4=He Stopped Loving Her Today
TTITLE5=Who's Gonna Fill Their Shoes
TTITLE6=Hell Stays Open (All Night Long)
TTITLE7=Yesterday's Wine (With Merle Haggard
TTITLE8=Take me
TTITLE9=I'm A One Woman Man
TTITLE10=Walk Through This World With You
TTITLE11=I Ain't Ever Slowing Down
EXTD=
EXTT0=
EXTT1=
EXTT2=
EXTT3=
EXTT4=
EXTT5=
EXTT6=
EXTT7=
EXTT8=
EXTT9=
EXTT10=
EXTT11=
PLAYORDER=
